<svg version="1.1" viewBox="0.0 0.0 442.9737532808399 143.0524934383202" fill="none" stroke="none" stroke-linecap="square" stroke-miterlimit="10" xmlns:xlink="http://www.w3.org/1999/xlink" xmlns="http://www.w3.org/2000/svg"><clipPath id="p.0"><path d="m0 0l442.97375 0l0 143.05249l-442.97375 0l0 -143.05249z" clip-rule="nonzero"/></clipPath><g clip-path="url(#p.0)"><path fill="#000000" fill-opacity="0.0" d="m0 0l442.97375 0l0 143.05249l-442.97375 0z" fill-rule="evenodd"/><g filter="url(#shadowFilter-p.1)"><use xlink:href="#p.1" transform="matrix(1.0 0.0 0.0 1.0 -1.4142136482939631 1.414213648293981)"/></g><defs><filter id="shadowFilter-p.1" filterUnits="userSpaceOnUse"><feGaussianBlur in="SourceAlpha" stdDeviation="0.0" result="blur"/><feComponentTransfer in="blur" color-interpolation-filters="sRGB"><feFuncR type="linear" slope="0" intercept="0.0"/><feFuncG type="linear" slope="0" intercept="0.0"/><feFuncB type="linear" slope="0" intercept="0.0"/><feFuncA type="linear" slope="1.0" intercept="0"/></feComponentTransfer></filter></defs><g id="p.1"><path fill="#000000" fill-opacity="0.0" d="m0 -21.430447l940.7559 0l0 229.00787l-940.7559 0z" fill-rule="evenodd"/><path fill="#aa3f02" d="m71.875 12.76955q3.484375 0 7.734375 3.609375q4.265625 3.59375 4.265625 5.875q0 7.5625 -3.546875 26.21875q-3.53125 18.656254 -9.046875 35.70313q-5.515625 17.03125 -9.96875 17.03125q-1.796875 0 -4.671875 -1.96875q-2.875 -1.984375 -3.84375 -4.6875q-0.953125 -2.703125 -3.71875 -11.21875q-6.359375 -19.562504 -12.0 -32.406254q-0.84375 3.609375 -2.21875 10.203125q-1.375 6.593754 -2.21875 10.375004q-0.84375 3.78125 -2.046875 9.125q-1.1875 5.34375 -2.09375 8.46875q-0.90625 3.109375 -1.984375 6.234375q-1.921875 5.875 -3.59375 5.875q-2.40625 0 -6.25 -4.375q-3.828125 -4.375 -3.828125 -7.5625q0 -3.1875 6.890625 -33.42188q6.90625 -30.234375 7.5 -37.921875q0.359375 -4.5625 2.765625 -4.5625q2.046875 0 5.21875 2.40625q3.1875 2.40625 5.515625 5.828125q2.34375 3.40625 8.453125 22.25q6.125 18.84375 9.734375 27.000004q4.671875 -13.921879 8.640625 -42.000004q1.5625 -11.15625 2.03125 -13.609375q0.484375 -2.46875 2.28125 -2.46875zm27.61055 11.640625q0 -3.125 2.8125 -6.421875q2.828125 -3.296875 5.515625 -3.296875q2.703125 0 6.421875 6.484375q3.71875 6.46875 3.71875 9.421875q0 2.9375 -1.921875 4.5q-1.90625 1.546875 -3.953125 1.546875q-3.484375 0 -8.046875 -4.546875q-4.546875 -4.5625 -4.546875 -7.6875zm1.796875 15.0q4.203125 0 7.5 4.796875q3.296875 4.796875 3.296875 9.25q0 2.265625 -4.140625 16.375004q-4.140625 14.09375 -8.21875 26.703125q-1.4375 4.671875 -5.875 4.671875q-2.640625 0 -4.625 -1.96875q-1.984375 -1.984375 -1.984375 -5.15625q0 -3.1875 3.0625 -15.84375q3.0625 -12.671875 4.671875 -21.609379q1.625 -8.9375 3.0 -13.078125q1.390625 -4.140625 3.3125 -4.140625zm17.637466 43.07813q0 -8.40625 5.28125 -18.484375q5.28125 -10.078129 13.859375 -17.265629q8.578125 -7.203125 16.859375 -7.203125q4.203125 0 8.640625 5.46875q4.4375 5.453125 4.4375 9.765625q0 3.125 -2.875 3.125q-1.4375 0 -3.96875 -1.3125q-2.515625 -1.328125 -5.15625 -1.328125q-2.640625 0 -7.5 4.5q-4.859375 4.500004 -8.640625 10.796879q-3.78125 6.296875 -3.78125 9.90625q0 3.59375 1.375 4.671875q1.390625 1.078125 6.71875 1.078125q5.34375 0 9.71875 -0.953125q4.390625 -0.96875 6.484375 -1.984375q2.109375 -1.015625 3.78125 -1.015625q3.359375 0 3.359375 2.875q0 5.28125 -9.234375 10.75q-9.234375 5.453125 -18.484375 5.453125q-5.875 0 -13.375 -6.53125q-7.5 -6.546875 -7.5 -12.3125zm112.44557 -20.640629q0 5.875004 -7.984375 10.562504q-7.984375 4.671875 -16.390625 4.671875q-8.390625 0 -13.796875 -1.1875q-1.078125 3.234375 -1.078125 6.484375q0 3.234375 1.078125 4.609375q1.09375 1.375 5.40625 1.375q9.0 0 15.421875 -1.671875q6.421875 -1.6875 6.65625 -1.6875q4.921875 0 4.921875 3.25q0 4.671875 -7.75 8.875q-7.734375 4.203125 -17.875 4.203125q-10.140625 0 -16.265625 -6.359375q-6.109375 -6.359375 -6.109375 -15.0625q0 -8.703125 5.09375 -18.171879q5.109375 -9.484375 12.78125 -15.90625q7.6875 -6.421875 15.296875 -6.421875q7.625 0 14.109375 7.5q6.484375 7.5 6.484375 14.9375zm-13.921875 -1.921875q0 -1.203125 -2.53125 -3.46875q-2.515625 -2.28125 -4.734375 -2.28125q-2.21875 0 -5.703125 3.1875q-3.46875 3.171875 -6.59375 8.203129q1.078125 0.125 3.125 0.125q16.4375 0 16.4375 -5.765629z" fill-rule="nonzero"/><path fill="#fc5c00" d="m262.56604 30.410175q-12.96875 0.71875 -14.171875 0.71875q-2.875 0 -5.765625 -3.53125q-2.875 -3.546875 -2.875 -7.390625q0 -5.875 34.203125 -5.875q17.515625 0 25.796875 3.609375q8.28125 3.59375 8.28125 8.75q0 1.5625 -1.796875 2.9375q-1.796875 1.375 -4.5625 1.375q-2.75 0 -10.078125 -0.359375q-7.3125 -0.359375 -13.3125 -0.46875q0.46875 1.4375 0.46875 3.359375q0 1.921875 -1.375 7.5625q-1.375 5.625 -3.90625 15.65625q-2.515625 10.015629 -5.515625 24.234379q-3.0 14.21875 -4.140625 16.921875q-1.140625 2.703125 -2.21875 2.703125q-2.515625 0 -6.296875 -4.625q-3.78125 -4.625 -3.78125 -7.5q0 -2.875 4.921875 -23.8125q4.921875 -20.953129 6.125 -34.26563zm45.467438 29.28125l-0.71875 -13.5625q0 -6.71875 4.203125 -6.71875q2.40625 0 4.734375 1.796875q2.34375 1.796875 3.546875 5.640625q4.078125 -3.59375 8.9375 -5.8125q4.859375 -2.21875 8.578125 -2.21875q8.765625 0 8.765625 4.1875q0 2.171875 -0.78125 3.1875q-0.78125 1.015625 -1.203125 1.5q-0.421875 0.484375 -1.4375 1.265625q-1.015625 0.765625 -1.5 1.125q-2.765625 1.8125 -3.953125 2.53125q-5.40625 3.359375 -9.25 8.109375q-3.828125 4.734379 -5.75 13.125004q-3.25 13.796875 -6.3125 20.578125q-3.046875 6.78125 -6.828125 6.78125q-3.78125 0 -5.640625 -3.59375q-1.859375 -3.609375 -1.859375 -6.78125q0 -3.1875 2.328125 -9.546875q2.34375 -6.359375 3.234375 -10.96875q0.90625 -4.625 0.90625 -10.625004zm48.611847 -35.28125q0 -3.125 2.8125 -6.421875q2.828125 -3.296875 5.515625 -3.296875q2.703125 0 6.421875 6.484375q3.71875 6.46875 3.71875 9.421875q0 2.9375 -1.921875 4.5q-1.90625 1.546875 -3.953125 1.546875q-3.484375 0 -8.046875 -4.546875q-4.546875 -4.5625 -4.546875 -7.6875zm1.796875 15.0q4.203125 0 7.5 4.796875q3.296875 4.796875 3.296875 9.25q0 2.265625 -4.140625 16.375004q-4.140625 14.09375 -8.21875 26.703125q-1.4375 4.671875 -5.875 4.671875q-2.640625 0 -4.625 -1.96875q-1.984375 -1.984375 -1.984375 -5.15625q0 -3.1875 3.0625 -15.84375q3.0625 -12.671875 4.671875 -21.609379q1.625 -8.9375 3.0 -13.078125q1.390625 -4.140625 3.3125 -4.140625zm61.19995 0.125q4.4375 0 9.53125 7.921875q5.109375 7.90625 5.109375 15.828125q0 4.796879 -4.078125 11.406254q-4.078125 6.59375 -10.265625 12.421875q-6.171875 5.8125 -14.28125 9.890625q-8.09375 4.078125 -15.421875 4.078125l-1.4375 0q-7.5625 31.453117 -10.671875 31.453117q-2.53125 0 -5.34375 -4.203125q-2.828125 -4.2031174 -2.828125 -6.9687424q0 -2.75 3.484375 -16.90625q10.328125 -42.000004 10.328125 -63.375004q0 -3.59375 3.46875 -3.59375q2.890625 0 7.328125 3.25q4.4375 3.234375 5.515625 8.390625q10.203125 -9.59375 19.5625 -9.59375zm-27.125 47.281254q9.359375 -1.8125 17.703125 -10.328125q8.34375 -8.515625 8.34375 -14.750004q0 -6.25 -3.484375 -6.25q-5.046875 0 -10.6875 5.765625q-2.265625 2.390625 -5.03125 7.078129q-2.765625 4.671875 -4.796875 10.921875l-2.046875 7.5625z" fill-rule="nonzero"/></g></g></svg>